ISO-10303-21;
HEADER;
FILE_NAME('Open CASCADE Shape Model','2026-09-30T07:04:20',('Author'),(
    'Open CASCADE'),'Open CASCADE STEP processor 7.8','Open CASCADE 7.8'
  ,'Unknown');
FILE_DESCRIPTION(('Open CASCADE Model'),'2;1');
FILE_SCHEMA(('AUTOMOTIVE_DESIGN { 1 0 10303 214 1 1 1 1 }'));
ENDSEC;
DATA;
#1 = APPLICATION_PROTOCOL_DEFINITION('international standard',
  'automotive_design',2000,#2);
#2 = APPLICATION_CONTEXT(
  'core data for automotive mechanical design processes');
#3 = SHAPE_DEFINITION_REPRESENTATION(#4,#10);
#4 = PRODUCT_DEFINITION_SHAPE('','',#5);
#5 = PRODUCT_DEFINITION('design','',#6,#9);
#6 = PRODUCT_DEFINITION_FORMATION('','',#7);
#7 = PRODUCT('Open CASCADE STEP translator 7.8 1',
  'Open CASCADE STEP translator 7.8 1','',(#8));
#8 = PRODUCT_CONTEXT('',#2,'mechanical');
#9 = PRODUCT_DEFINITION_CONTEXT('part definition',#2,'design');
#10 = ADVANCED_BREP_SHAPE_REPRESENTATION('',(#11,#15),#671);
#11 = AXIS2_PLACEMENT_3D('',#12,#13,#14);
#12 = CARTESIAN_POINT('',(0.,0.,0.));
#13 = DIRECTION('',(0.,0.,1.));
#14 = DIRECTION('',(1.,0.,-0.));
#15 = MANIFOLD_SOLID_BREP('',#16);
#16 = CLOSED_SHELL('',(#17,#54,#328,#385,#441,#445,#500,#556,#612,#667)
  );
#17 = ADVANCED_FACE('',(#18),#31,.F.);
#18 = FACE_BOUND('',#19,.T.);
#19 = EDGE_LOOP('',(#20));
#20 = ORIENTED_EDGE('',*,*,#21,.F.);
#21 = EDGE_CURVE('',#22,#22,#24,.T.);
#22 = VERTEX_POINT('',#23);
#23 = CARTESIAN_POINT('',(-5.035533905933,3.,0.));
#24 = SURFACE_CURVE('',#25,(#30,#42),.PCURVE_S1.);
#25 = CIRCLE('',#26,3.);
#26 = AXIS2_PLACEMENT_3D('',#27,#28,#29);
#27 = CARTESIAN_POINT('',(-5.035533905933,0.,0.));
#28 = DIRECTION('',(1.,0.,0.));
#29 = DIRECTION('',(0.,1.,0.));
#30 = PCURVE('',#31,#36);
#31 = PLANE('',#32);
#32 = AXIS2_PLACEMENT_3D('',#33,#34,#35);
#33 = CARTESIAN_POINT('',(-5.035533905933,0.,0.));
#34 = DIRECTION('',(1.,0.,0.));
#35 = DIRECTION('',(0.,1.,0.));
#36 = DEFINITIONAL_REPRESENTATION('',(#37),#41);
#37 = CIRCLE('',#38,3.);
#38 = AXIS2_PLACEMENT_2D('',#39,#40);
#39 = CARTESIAN_POINT('',(0.,0.));
#40 = DIRECTION('',(1.,0.));
#41 = ( GEOMETRIC_REPRESENTATION_CONTEXT(2) 
PARAMETRIC_REPRESENTATION_CONTEXT() REPRESENTATION_CONTEXT('2D SPACE',''
  ) );
#42 = PCURVE('',#43,#48);
#43 = CYLINDRICAL_SURFACE('',#44,3.);
#44 = AXIS2_PLACEMENT_3D('',#45,#46,#47);
#45 = CARTESIAN_POINT('',(-5.035533905933,0.,0.));
#46 = DIRECTION('',(1.,0.,0.));
#47 = DIRECTION('',(0.,1.,0.));
#48 = DEFINITIONAL_REPRESENTATION('',(#49),#53);
#49 = LINE('',#50,#51);
#50 = CARTESIAN_POINT('',(0.,0.));
#51 = VECTOR('',#52,1.);
#52 = DIRECTION('',(1.,0.));
#53 = ( GEOMETRIC_REPRESENTATION_CONTEXT(2) 
PARAMETRIC_REPRESENTATION_CONTEXT() REPRESENTATION_CONTEXT('2D SPACE',''
  ) );
#54 = ADVANCED_FACE('',(#55),#43,.T.);
#55 = FACE_BOUND('',#56,.T.);
#56 = EDGE_LOOP('',(#57,#80,#81,#82,#179,#202,#229,#230,#280));
#57 = ORIENTED_EDGE('',*,*,#58,.F.);
#58 = EDGE_CURVE('',#22,#59,#61,.T.);
#59 = VERTEX_POINT('',#60);
#60 = CARTESIAN_POINT('',(-4.8,3.,0.));
#61 = SEAM_CURVE('',#62,(#66,#73),.PCURVE_S1.);
#62 = LINE('',#63,#64);
#63 = CARTESIAN_POINT('',(-5.035533905933,3.,0.));
#64 = VECTOR('',#65,1.);
#65 = DIRECTION('',(1.,0.,0.));
#66 = PCURVE('',#43,#67);
#67 = DEFINITIONAL_REPRESENTATION('',(#68),#72);
#68 = LINE('',#69,#70);
#69 = CARTESIAN_POINT('',(4.138911435803E-13,0.));
#70 = VECTOR('',#71,1.);
#71 = DIRECTION('',(0.,1.));
#72 = ( GEOMETRIC_REPRESENTATION_CONTEXT(2) 
PARAMETRIC_REPRESENTATION_CONTEXT() REPRESENTATION_CONTEXT('2D SPACE',''
  ) );
#73 = PCURVE('',#43,#74);
#74 = DEFINITIONAL_REPRESENTATION('',(#75),#79);
#75 = LINE('',#76,#77);
#76 = CARTESIAN_POINT('',(6.28318530718,0.));
#77 = VECTOR('',#78,1.);
#78 = DIRECTION('',(0.,1.));
#79 = ( GEOMETRIC_REPRESENTATION_CONTEXT(2) 
PARAMETRIC_REPRESENTATION_CONTEXT() REPRESENTATION_CONTEXT('2D SPACE',''
  ) );
#80 = ORIENTED_EDGE('',*,*,#21,.T.);
#81 = ORIENTED_EDGE('',*,*,#58,.T.);
#82 = ORIENTED_EDGE('',*,*,#83,.F.);
#83 = EDGE_CURVE('',#84,#59,#86,.T.);
#84 = VERTEX_POINT('',#85);
#85 = CARTESIAN_POINT('',(-3.6,3.,0.));
#86 = SURFACE_CURVE('',#87,(#114,#144),.PCURVE_S1.);
#87 = B_SPLINE_CURVE_WITH_KNOTS('',7,(#88,#89,#90,#91,#92,#93,#94,#95,
    #96,#97,#98,#99,#100,#101,#102,#103,#104,#105,#106,#107,#108,#109,
    #110,#111,#112,#113),.UNSPECIFIED.,.F.,.F.,(8,6,6,6,8),(0.,
    0.281352019341,0.49978757341,0.798349859722,1.),.UNSPECIFIED.);
#88 = CARTESIAN_POINT('',(-3.6,3.,1.550981565401E-13));
#89 = CARTESIAN_POINT('',(-3.6,3.,-8.065792532103E-02));
#90 = CARTESIAN_POINT('',(-3.612649847515,2.997469866175,-0.160609995403
    ));
#91 = CARTESIAN_POINT('',(-3.637551948419,2.992490305418,-0.237467675103
    ));
#92 = CARTESIAN_POINT('',(-3.673742147857,2.985572593983,-0.308966093553
    ));
#93 = CARTESIAN_POINT('',(-3.719705202801,2.977618417344,-0.37312909922)
  );
#94 = CARTESIAN_POINT('',(-3.773383600899,2.969610922947,-0.428427073783
    ));
#95 = CARTESIAN_POINT('',(-3.877962830541,2.956628315963,-0.509547039498
    ));
#96 = CARTESIAN_POINT('',(-3.927138444147,2.951333701773,-0.539457257873
    ));
#97 = CARTESIAN_POINT('',(-3.979042657968,2.946738231022,-0.563586575704
    ));
#98 = CARTESIAN_POINT('',(-4.03296478295,2.943107755815,-0.581775520288)
  );
#99 = CARTESIAN_POINT('',(-4.088214874597,2.940627213992,-0.593927581271
    ));
#100 = CARTESIAN_POINT('',(-4.144116387294,2.93938769134,-0.6));
#101 = CARTESIAN_POINT('',(-4.276382891274,2.93938769134,-0.6));
#102 = CARTESIAN_POINT('',(-4.352890653453,2.94170309526,-0.588655839628
    ));
#103 = CARTESIAN_POINT('',(-4.427757275822,2.946349132021,
    -0.565898525571));
#104 = CARTESIAN_POINT('',(-4.499179314551,2.953003117091,
    -0.531888985621));
#105 = CARTESIAN_POINT('',(-4.565316945783,2.961002712496,
    -0.487021029493));
#106 = CARTESIAN_POINT('',(-4.624279147108,2.969443430994,
    -0.431963873948));
#107 = CARTESIAN_POINT('',(-4.707737484244,2.982732656886,
    -0.324370034035));
#108 = CARTESIAN_POINT('',(-4.737267571364,2.987866965938,
    -0.276740534811));
#109 = CARTESIAN_POINT('',(-4.761824164532,2.992448637911,
    -0.225436066766));
#110 = CARTESIAN_POINT('',(-4.780743880434,2.996148548935,
    -0.171214096951));
#111 = CARTESIAN_POINT('',(-4.793559032045,2.998711902703,
    -0.114943472459));
#112 = CARTESIAN_POINT('',(-4.8,3.,-5.755380573913E-02));
#113 = CARTESIAN_POINT('',(-4.8,3.,3.103073353827E-13));
#114 = PCURVE('',#43,#115);
#115 = DEFINITIONAL_REPRESENTATION('',(#116),#143);
#116 = B_SPLINE_CURVE_WITH_KNOTS('',7,(#117,#118,#119,#120,#121,#122,
    #123,#124,#125,#126,#127,#128,#129,#130,#131,#132,#133,#134,#135,
    #136,#137,#138,#139,#140,#141,#142),.UNSPECIFIED.,.F.,.F.,(8,6,6,6,8
    ),(0.,0.281352019341,0.49978757341,0.798349859722,1.),
  .UNSPECIFIED.);
#117 = CARTESIAN_POINT('',(6.28318530718,1.435533905933));
#118 = CARTESIAN_POINT('',(6.256299332073,1.435533905933));
#119 = CARTESIAN_POINT('',(6.229648595395,1.422884058418));
#120 = CARTESIAN_POINT('',(6.203997874559,1.397981957514));
#121 = CARTESIAN_POINT('',(6.180071653487,1.361791758076));
#122 = CARTESIAN_POINT('',(6.158527521958,1.315828703132));
#123 = CARTESIAN_POINT('',(6.139904717453,1.262150305034));
#124 = CARTESIAN_POINT('',(6.112520624501,1.157571075392));
#125 = CARTESIAN_POINT('',(6.102396944008,1.108395461786));
#126 = CARTESIAN_POINT('',(6.094209978509,1.056491247965));
#127 = CARTESIAN_POINT('',(6.088027507715,1.002569122983));
#128 = CARTESIAN_POINT('',(6.083893253409,0.947319031336));
#129 = CARTESIAN_POINT('',(6.081827386389,0.891417518639));
#130 = CARTESIAN_POINT('',(6.081827386389,0.759151014659));
#131 = CARTESIAN_POINT('',(6.085686583573,0.68264325248));
#132 = CARTESIAN_POINT('',(6.093429326105,0.607776630111));
#133 = CARTESIAN_POINT('',(6.1049798046,0.536354591382));
#134 = CARTESIAN_POINT('',(6.120166908394,0.47021696015));
#135 = CARTESIAN_POINT('',(6.138725600753,0.411254758825));
#136 = CARTESIAN_POINT('',(6.174862743714,0.327796421689));
#137 = CARTESIAN_POINT('',(6.190829322486,0.298266334569));
#138 = CARTESIAN_POINT('',(6.207994029436,0.273709741401));
#139 = CARTESIAN_POINT('',(6.226102476055,0.254790025499));
#140 = CARTESIAN_POINT('',(6.24487079241,0.241974873888));
#141 = CARTESIAN_POINT('',(6.264000705266,0.235533905933));
#142 = CARTESIAN_POINT('',(6.28318530718,0.235533905933));
#143 = ( GEOMETRIC_REPRESENTATION_CONTEXT(2) 
PARAMETRIC_REPRESENTATION_CONTEXT() REPRESENTATION_CONTEXT('2D SPACE',''
  ) );
#144 = PCURVE('',#145,#150);
#145 = CYLINDRICAL_SURFACE('',#146,0.6);
#146 = AXIS2_PLACEMENT_3D('',#147,#148,#149);
#147 = CARTESIAN_POINT('',(-4.2,0.,0.));
#148 = DIRECTION('',(0.,1.,0.));
#149 = DIRECTION('',(0.,-0.,1.));
#150 = DEFINITIONAL_REPRESENTATION('',(#151),#178);
#151 = B_SPLINE_CURVE_WITH_KNOTS('',7,(#152,#153,#154,#155,#156,#157,
    #158,#159,#160,#161,#162,#163,#164,#165,#166,#167,#168,#169,#170,
    #171,#172,#173,#174,#175,#176,#177),.UNSPECIFIED.,.F.,.F.,(8,6,6,6,8
    ),(0.,0.281352019341,0.49978757341,0.798349859722,1.),
  .UNSPECIFIED.);
#152 = CARTESIAN_POINT('',(1.570796326794,3.));
#153 = CARTESIAN_POINT('',(1.70522620233,3.));
#154 = CARTESIAN_POINT('',(1.838479719491,2.997469866175));
#155 = CARTESIAN_POINT('',(1.970543329177,2.992490305418));
#156 = CARTESIAN_POINT('',(2.101300211444,2.985572593983));
#157 = CARTESIAN_POINT('',(2.230501903999,2.977618417344));
#158 = CARTESIAN_POINT('',(2.357679678646,2.969610922947));
#159 = CARTESIAN_POINT('',(2.578267681431,2.956628315963));
#160 = CARTESIAN_POINT('',(2.673582049147,2.951333701773));
#161 = CARTESIAN_POINT('',(2.768047555769,2.946738231022));
#162 = CARTESIAN_POINT('',(2.861881169362,2.943107755815));
#163 = CARTESIAN_POINT('',(2.955284017815,2.940627213992));
#164 = CARTESIAN_POINT('',(3.04845329908,2.93938769134));
#165 = CARTESIAN_POINT('',(3.268897472379,2.93938769134));
#166 = CARTESIAN_POINT('',(3.39641105185,2.94170309526));
#167 = CARTESIAN_POINT('',(3.524556352958,2.946349132021));
#168 = CARTESIAN_POINT('',(3.653755442116,2.953003117091));
#169 = CARTESIAN_POINT('',(3.784458686489,2.961002712496));
#170 = CARTESIAN_POINT('',(3.917196626156,2.969443430994));
#171 = CARTESIAN_POINT('',(4.144143318531,2.982732656886));
#172 = CARTESIAN_POINT('',(4.237032680535,2.987866965938));
#173 = CARTESIAN_POINT('',(4.330933985614,2.992448637911));
#174 = CARTESIAN_POINT('',(4.425589547407,2.996148548935));
#175 = CARTESIAN_POINT('',(4.52081690775,2.998711902703));
#176 = CARTESIAN_POINT('',(4.61646597082,3.));
#177 = CARTESIAN_POINT('',(4.712388980386,3.));
#178 = ( GEOMETRIC_REPRESENTATION_CONTEXT(2) 
PARAMETRIC_REPRESENTATION_CONTEXT() REPRESENTATION_CONTEXT('2D SPACE',''
  ) );
#179 = ORIENTED_EDGE('',*,*,#180,.T.);
#180 = EDGE_CURVE('',#84,#181,#183,.T.);
#181 = VERTEX_POINT('',#182);
#182 = CARTESIAN_POINT('',(-3.035533905933,3.,0.));
#183 = SEAM_CURVE('',#184,(#188,#195),.PCURVE_S1.);
#184 = LINE('',#185,#186);
#185 = CARTESIAN_POINT('',(-5.035533905933,3.,0.));
#186 = VECTOR('',#187,1.);
#187 = DIRECTION('',(1.,0.,0.));
#188 = PCURVE('',#43,#189);
#189 = DEFINITIONAL_REPRESENTATION('',(#190),#194);
#190 = LINE('',#191,#192);
#191 = CARTESIAN_POINT('',(4.138911435803E-13,0.));
#192 = VECTOR('',#193,1.);
#193 = DIRECTION('',(0.,1.));
#194 = ( GEOMETRIC_REPRESENTATION_CONTEXT(2) 
PARAMETRIC_REPRESENTATION_CONTEXT() REPRESENTATION_CONTEXT('2D SPACE',''
  ) );
#195 = PCURVE('',#43,#196);
#196 = DEFINITIONAL_REPRESENTATION('',(#197),#201);
#197 = LINE('',#198,#199);
#198 = CARTESIAN_POINT('',(6.28318530718,0.));
#199 = VECTOR('',#200,1.);
#200 = DIRECTION('',(0.,1.));
#201 = ( GEOMETRIC_REPRESENTATION_CONTEXT(2) 
PARAMETRIC_REPRESENTATION_CONTEXT() REPRESENTATION_CONTEXT('2D SPACE',''
  ) );
#202 = ORIENTED_EDGE('',*,*,#203,.F.);
#203 = EDGE_CURVE('',#181,#181,#204,.T.);
#204 = SURFACE_CURVE('',#205,(#210,#217),.PCURVE_S1.);
#205 = CIRCLE('',#206,3.);
#206 = AXIS2_PLACEMENT_3D('',#207,#208,#209);
#207 = CARTESIAN_POINT('',(-3.035533905933,0.,0.));
#208 = DIRECTION('',(1.,0.,0.));
#209 = DIRECTION('',(0.,1.,0.));
#210 = PCURVE('',#43,#211);
#211 = DEFINITIONAL_REPRESENTATION('',(#212),#216);
#212 = LINE('',#213,#214);
#213 = CARTESIAN_POINT('',(0.,2.));
#214 = VECTOR('',#215,1.);
#215 = DIRECTION('',(1.,0.));
#216 = ( GEOMETRIC_REPRESENTATION_CONTEXT(2) 
PARAMETRIC_REPRESENTATION_CONTEXT() REPRESENTATION_CONTEXT('2D SPACE',''
  ) );
#217 = PCURVE('',#218,#223);
#218 = TOROIDAL_SURFACE('',#219,2.,1.);
#219 = AXIS2_PLACEMENT_3D('',#220,#221,#222);
#220 = CARTESIAN_POINT('',(-3.035533905933,0.,0.));
#221 = DIRECTION('',(1.,0.,0.));
#222 = DIRECTION('',(0.,1.,0.));
#223 = DEFINITIONAL_REPRESENTATION('',(#224),#228);
#224 = LINE('',#225,#226);
#225 = CARTESIAN_POINT('',(0.,-2.620126338115E-13));
#226 = VECTOR('',#227,1.);
#227 = DIRECTION('',(1.,0.));
#228 = ( GEOMETRIC_REPRESENTATION_CONTEXT(2) 
PARAMETRIC_REPRESENTATION_CONTEXT() REPRESENTATION_CONTEXT('2D SPACE',''
  ) );
#229 = ORIENTED_EDGE('',*,*,#180,.F.);
#230 = ORIENTED_EDGE('',*,*,#231,.F.);
#231 = EDGE_CURVE('',#232,#84,#234,.T.);
#232 = VERTEX_POINT('',#233);
#233 = CARTESIAN_POINT('',(-4.2,2.93938769134,0.6));
#234 = SURFACE_CURVE('',#235,(#248,#264),.PCURVE_S1.);
#235 = B_SPLINE_CURVE_WITH_KNOTS('',6,(#236,#237,#238,#239,#240,#241,
    #242,#243,#244,#245,#246,#247),.UNSPECIFIED.,.F.,.F.,(7,5,7),(0.,
    0.596897068263,1.),.UNSPECIFIED.);
#236 = CARTESIAN_POINT('',(-4.2,2.93938769134,0.6));
#237 = CARTESIAN_POINT('',(-4.110886626848,2.93938769134,0.6));
#238 = CARTESIAN_POINT('',(-4.021598434427,2.942629256828,0.584118175479
    ));
#239 = CARTESIAN_POINT('',(-3.935225941491,2.949139038417,0.552233788141
    ));
#240 = CARTESIAN_POINT('',(-3.854947010726,2.958155221991,0.504762582261
    ));
#241 = CARTESIAN_POINT('',(-3.784023162945,2.968121438759,0.442667147574
    ));
#242 = CARTESIAN_POINT('',(-3.686659356921,2.983624858265,0.317146485192
    ));
#243 = CARTESIAN_POINT('',(-3.653163729336,2.989563337779,0.260583723388
    ));
#244 = CARTESIAN_POINT('',(-3.626931966536,2.994613118965,0.19907391252)
  );
#245 = CARTESIAN_POINT('',(-3.609014273095,2.998197268719,0.134051342468
    ));
#246 = CARTESIAN_POINT('',(-3.6,3.,6.713469044427E-02));
#247 = CARTESIAN_POINT('',(-3.6,3.,1.554342541155E-13));
#248 = PCURVE('',#43,#249);
#249 = DEFINITIONAL_REPRESENTATION('',(#250),#263);
#250 = B_SPLINE_CURVE_WITH_KNOTS('',6,(#251,#252,#253,#254,#255,#256,
    #257,#258,#259,#260,#261,#262),.UNSPECIFIED.,.F.,.F.,(7,5,7),(0.,
    0.596897068263,1.),.UNSPECIFIED.);
#251 = CARTESIAN_POINT('',(0.20135792079,0.835533905933));
#252 = CARTESIAN_POINT('',(0.20135792079,0.924647279085));
#253 = CARTESIAN_POINT('',(0.195955044733,1.013935471506));
#254 = CARTESIAN_POINT('',(0.185106683331,1.100307964442));
#255 = CARTESIAN_POINT('',(0.169003928243,1.180586895207));
#256 = CARTESIAN_POINT('',(0.148054575142,1.251510742988));
#257 = CARTESIAN_POINT('',(0.105896416974,1.348874549012));
#258 = CARTESIAN_POINT('',(8.694167102604E-02,1.382370176597));
#259 = CARTESIAN_POINT('',(6.637800184205E-02,1.408601939397));
#260 = CARTESIAN_POINT('',(4.468381216554E-02,1.426519632838));
#261 = CARTESIAN_POINT('',(2.237823014804E-02,1.435533905933));
#262 = CARTESIAN_POINT('',(0.,1.435533905933));
#263 = ( GEOMETRIC_REPRESENTATION_CONTEXT(2) 
PARAMETRIC_REPRESENTATION_CONTEXT() REPRESENTATION_CONTEXT('2D SPACE',''
  ) );
#264 = PCURVE('',#145,#265);
#265 = DEFINITIONAL_REPRESENTATION('',(#266),#279);
#266 = B_SPLINE_CURVE_WITH_KNOTS('',6,(#267,#268,#269,#270,#271,#272,
    #273,#274,#275,#276,#277,#278),.UNSPECIFIED.,.F.,.F.,(7,5,7),(0.,
    0.596897068263,1.),.UNSPECIFIED.);
#267 = CARTESIAN_POINT('',(0.,2.93938769134));
#268 = CARTESIAN_POINT('',(0.148522288587,2.93938769134));
#269 = CARTESIAN_POINT('',(0.297336842129,2.942629256828));
#270 = CARTESIAN_POINT('',(0.447183842297,2.949139038417));
#271 = CARTESIAN_POINT('',(0.598801383498,2.958155221991));
#272 = CARTESIAN_POINT('',(0.753027656403,2.968121438759));
#273 = CARTESIAN_POINT('',(1.017787229771,2.983624858265));
#274 = CARTESIAN_POINT('',(1.126491655034,2.989563337779));
#275 = CARTESIAN_POINT('',(1.236482823689,2.994613118965));
#276 = CARTESIAN_POINT('',(1.347377920927,2.998197268719));
#277 = CARTESIAN_POINT('',(1.458905176054,3.));
#278 = CARTESIAN_POINT('',(1.570796326794,3.));
#279 = ( GEOMETRIC_REPRESENTATION_CONTEXT(2) 
PARAMETRIC_REPRESENTATION_CONTEXT() REPRESENTATION_CONTEXT('2D SPACE',''
  ) );
#280 = ORIENTED_EDGE('',*,*,#281,.F.);
#281 = EDGE_CURVE('',#59,#232,#282,.T.);
#282 = SURFACE_CURVE('',#283,(#296,#312),.PCURVE_S1.);
#283 = B_SPLINE_CURVE_WITH_KNOTS('',6,(#284,#285,#286,#287,#288,#289,
    #290,#291,#292,#293,#294,#295),.UNSPECIFIED.,.F.,.F.,(7,5,7),(0.,
    0.403119114612,1.),.UNSPECIFIED.);
#284 = CARTESIAN_POINT('',(-4.8,3.,9.314664174755E-13));
#285 = CARTESIAN_POINT('',(-4.8,3.,6.715047410471E-02));
#286 = CARTESIAN_POINT('',(-4.790981471107,2.99819642989,0.134066447666)
  );
#287 = CARTESIAN_POINT('',(-4.773063663249,2.99461223631,0.199079023648)
  );
#288 = CARTESIAN_POINT('',(-4.746836973296,2.989563644799,0.260578803322
    ));
#289 = CARTESIAN_POINT('',(-4.713346528721,2.983625795447,0.317138897467
    ));
#290 = CARTESIAN_POINT('',(-4.615972031027,2.968120673486,0.442673343468
    ));
#291 = CARTESIAN_POINT('',(-4.54504769238,2.958154604548,0.504764555249)
  );
#292 = CARTESIAN_POINT('',(-4.464775419799,2.949139658277,0.552230236787
    ));
#293 = CARTESIAN_POINT('',(-4.37841187594,2.942630207398,0.584113762367)
  );
#294 = CARTESIAN_POINT('',(-4.289125563038,2.93938769134,0.6));
#295 = CARTESIAN_POINT('',(-4.2,2.93938769134,0.6));
#296 = PCURVE('',#43,#297);
#297 = DEFINITIONAL_REPRESENTATION('',(#298),#311);
#298 = B_SPLINE_CURVE_WITH_KNOTS('',6,(#299,#300,#301,#302,#303,#304,
    #305,#306,#307,#308,#309,#310),.UNSPECIFIED.,.F.,.F.,(7,5,7),(0.,
    0.403119114612,1.),.UNSPECIFIED.);
#299 = CARTESIAN_POINT('',(4.138911435803E-13,0.235533905933));
#300 = CARTESIAN_POINT('',(2.238349136834E-02,0.235533905933));
#301 = CARTESIAN_POINT('',(4.468884984987E-02,0.244552434826));
#302 = CARTESIAN_POINT('',(6.637971771323E-02,0.262470242684));
#303 = CARTESIAN_POINT('',(8.694003367941E-02,0.288696932637));
#304 = CARTESIAN_POINT('',(0.105893868513,0.322187377212));
#305 = CARTESIAN_POINT('',(0.148056656134,0.419561874906));
#306 = CARTESIAN_POINT('',(0.169004592067,0.490486213553));
#307 = CARTESIAN_POINT('',(0.185105520251,0.570758486134));
#308 = CARTESIAN_POINT('',(0.195953513154,0.657122029993));
#309 = CARTESIAN_POINT('',(0.20135792079,0.746408342895));
#310 = CARTESIAN_POINT('',(0.20135792079,0.835533905933));
#311 = ( GEOMETRIC_REPRESENTATION_CONTEXT(2) 
PARAMETRIC_REPRESENTATION_CONTEXT() REPRESENTATION_CONTEXT('2D SPACE',''
  ) );
#312 = PCURVE('',#145,#313);
#313 = DEFINITIONAL_REPRESENTATION('',(#314),#327);
#314 = B_SPLINE_CURVE_WITH_KNOTS('',6,(#315,#316,#317,#318,#319,#320,
    #321,#322,#323,#324,#325,#326),.UNSPECIFIED.,.F.,.F.,(7,5,7),(0.,
    0.403119114612,1.),.UNSPECIFIED.);
#315 = CARTESIAN_POINT('',(4.712388980386,3.));
#316 = CARTESIAN_POINT('',(4.824306437225,3.));
#317 = CARTESIAN_POINT('',(4.935832516245,2.99819642989));
#318 = CARTESIAN_POINT('',(5.046712816711,2.99461223631));
#319 = CARTESIAN_POINT('',(5.156686406082,2.989563644799));
#320 = CARTESIAN_POINT('',(5.26538207269,2.983625795447));
#321 = CARTESIAN_POINT('',(5.530170719719,2.968120673486));
#322 = CARTESIAN_POINT('',(5.684392073895,2.958154604548));
#323 = CARTESIAN_POINT('',(5.83599677255,2.949139658277));
#324 = CARTESIAN_POINT('',(5.985831354434,2.942630207398));
#325 = CARTESIAN_POINT('',(6.134642702117,2.93938769134));
#326 = CARTESIAN_POINT('',(6.28318530718,2.93938769134));
#327 = ( GEOMETRIC_REPRESENTATION_CONTEXT(2) 
PARAMETRIC_REPRESENTATION_CONTEXT() REPRESENTATION_CONTEXT('2D SPACE',''
  ) );
#328 = ADVANCED_FACE('',(#329),#145,.T.);
#329 = FACE_BOUND('',#330,.T.);
#330 = EDGE_LOOP('',(#331,#354,#381,#382,#383,#384));
#331 = ORIENTED_EDGE('',*,*,#332,.T.);
#332 = EDGE_CURVE('',#232,#333,#335,.T.);
#333 = VERTEX_POINT('',#334);
#334 = CARTESIAN_POINT('',(-4.2,4.5,0.6));
#335 = SEAM_CURVE('',#336,(#340,#347),.PCURVE_S1.);
#336 = LINE('',#337,#338);
#337 = CARTESIAN_POINT('',(-4.2,0.,0.6));
#338 = VECTOR('',#339,1.);
#339 = DIRECTION('',(0.,1.,0.));
#340 = PCURVE('',#145,#341);
#341 = DEFINITIONAL_REPRESENTATION('',(#342),#346);
#342 = LINE('',#343,#344);
#343 = CARTESIAN_POINT('',(6.28318530718,-0.));
#344 = VECTOR('',#345,1.);
#345 = DIRECTION('',(0.,1.));
#346 = ( GEOMETRIC_REPRESENTATION_CONTEXT(2) 
PARAMETRIC_REPRESENTATION_CONTEXT() REPRESENTATION_CONTEXT('2D SPACE',''
  ) );
#347 = PCURVE('',#145,#348);
#348 = DEFINITIONAL_REPRESENTATION('',(#349),#353);
#349 = LINE('',#350,#351);
#350 = CARTESIAN_POINT('',(0.,-0.));
#351 = VECTOR('',#352,1.);
#352 = DIRECTION('',(0.,1.));
#353 = ( GEOMETRIC_REPRESENTATION_CONTEXT(2) 
PARAMETRIC_REPRESENTATION_CONTEXT() REPRESENTATION_CONTEXT('2D SPACE',''
  ) );
#354 = ORIENTED_EDGE('',*,*,#355,.F.);
#355 = EDGE_CURVE('',#333,#333,#356,.T.);
#356 = SURFACE_CURVE('',#357,(#362,#369),.PCURVE_S1.);
#357 = CIRCLE('',#358,0.6);
#358 = AXIS2_PLACEMENT_3D('',#359,#360,#361);
#359 = CARTESIAN_POINT('',(-4.2,4.5,0.));
#360 = DIRECTION('',(0.,1.,0.));
#361 = DIRECTION('',(0.,-0.,1.));
#362 = PCURVE('',#145,#363);
#363 = DEFINITIONAL_REPRESENTATION('',(#364),#368);
#364 = LINE('',#365,#366);
#365 = CARTESIAN_POINT('',(0.,4.5));
#366 = VECTOR('',#367,1.);
#367 = DIRECTION('',(1.,0.));
#368 = ( GEOMETRIC_REPRESENTATION_CONTEXT(2) 
PARAMETRIC_REPRESENTATION_CONTEXT() REPRESENTATION_CONTEXT('2D SPACE',''
  ) );
#369 = PCURVE('',#370,#375);
#370 = PLANE('',#371);
#371 = AXIS2_PLACEMENT_3D('',#372,#373,#374);
#372 = CARTESIAN_POINT('',(-4.2,4.5,0.));
#373 = DIRECTION('',(0.,1.,0.));
#374 = DIRECTION('',(0.,-0.,1.));
#375 = DEFINITIONAL_REPRESENTATION('',(#376),#380);
#376 = CIRCLE('',#377,0.6);
#377 = AXIS2_PLACEMENT_2D('',#378,#379);
#378 = CARTESIAN_POINT('',(0.,0.));
#379 = DIRECTION('',(1.,0.));
#380 = ( GEOMETRIC_REPRESENTATION_CONTEXT(2) 
PARAMETRIC_REPRESENTATION_CONTEXT() REPRESENTATION_CONTEXT('2D SPACE',''
  ) );
#381 = ORIENTED_EDGE('',*,*,#332,.F.);
#382 = ORIENTED_EDGE('',*,*,#231,.T.);
#383 = ORIENTED_EDGE('',*,*,#83,.T.);
#384 = ORIENTED_EDGE('',*,*,#281,.T.);
#385 = ADVANCED_FACE('',(#386),#218,.T.);
#386 = FACE_BOUND('',#387,.T.);
#387 = EDGE_LOOP('',(#388,#389,#413,#440));
#388 = ORIENTED_EDGE('',*,*,#203,.T.);
#389 = ORIENTED_EDGE('',*,*,#390,.T.);
#390 = EDGE_CURVE('',#181,#391,#393,.T.);
#391 = VERTEX_POINT('',#392);
#392 = CARTESIAN_POINT('',(-2.328427124746,2.707106781187,0.));
#393 = SEAM_CURVE('',#394,(#399,#406),.PCURVE_S1.);
#394 = CIRCLE('',#395,1.);
#395 = AXIS2_PLACEMENT_3D('',#396,#397,#398);
#396 = CARTESIAN_POINT('',(-3.035533905933,2.,0.));
#397 = DIRECTION('',(0.,0.,-1.));
#398 = DIRECTION('',(1.,0.,0.));
#399 = PCURVE('',#218,#400);
#400 = DEFINITIONAL_REPRESENTATION('',(#401),#405);
#401 = LINE('',#402,#403);
#402 = CARTESIAN_POINT('',(6.28318530718,-4.712388980385));
#403 = VECTOR('',#404,1.);
#404 = DIRECTION('',(0.,1.));
#405 = ( GEOMETRIC_REPRESENTATION_CONTEXT(2) 
PARAMETRIC_REPRESENTATION_CONTEXT() REPRESENTATION_CONTEXT('2D SPACE',''
  ) );
#406 = PCURVE('',#218,#407);
#407 = DEFINITIONAL_REPRESENTATION('',(#408),#412);
#408 = LINE('',#409,#410);
#409 = CARTESIAN_POINT('',(4.138911435803E-13,-4.712388980385));
#410 = VECTOR('',#411,1.);
#411 = DIRECTION('',(0.,1.));
#412 = ( GEOMETRIC_REPRESENTATION_CONTEXT(2) 
PARAMETRIC_REPRESENTATION_CONTEXT() REPRESENTATION_CONTEXT('2D SPACE',''
  ) );
#413 = ORIENTED_EDGE('',*,*,#414,.F.);
#414 = EDGE_CURVE('',#391,#391,#415,.T.);
#415 = SURFACE_CURVE('',#416,(#421,#428),.PCURVE_S1.);
#416 = CIRCLE('',#417,2.707106781187);
#417 = AXIS2_PLACEMENT_3D('',#418,#419,#420);
#418 = CARTESIAN_POINT('',(-2.328427124746,0.,0.));
#419 = DIRECTION('',(1.,0.,0.));
#420 = DIRECTION('',(0.,1.,0.));
#421 = PCURVE('',#218,#422);
#422 = DEFINITIONAL_REPRESENTATION('',(#423),#427);
#423 = LINE('',#424,#425);
#424 = CARTESIAN_POINT('',(0.,0.785398163397));
#425 = VECTOR('',#426,1.);
#426 = DIRECTION('',(1.,0.));
#427 = ( GEOMETRIC_REPRESENTATION_CONTEXT(2) 
PARAMETRIC_REPRESENTATION_CONTEXT() REPRESENTATION_CONTEXT('2D SPACE',''
  ) );
#428 = PCURVE('',#429,#434);
#429 = CONICAL_SURFACE('',#430,2.707106781187,0.785398163398);
#430 = AXIS2_PLACEMENT_3D('',#431,#432,#433);
#431 = CARTESIAN_POINT('',(-2.328427124746,0.,0.));
#432 = DIRECTION('',(-1.,-0.,-0.));
#433 = DIRECTION('',(0.,1.,0.));
#434 = DEFINITIONAL_REPRESENTATION('',(#435),#439);
#435 = LINE('',#436,#437);
#436 = CARTESIAN_POINT('',(6.28318530718,0.));
#437 = VECTOR('',#438,1.);
#438 = DIRECTION('',(-1.,0.));
#439 = ( GEOMETRIC_REPRESENTATION_CONTEXT(2) 
PARAMETRIC_REPRESENTATION_CONTEXT() REPRESENTATION_CONTEXT('2D SPACE',''
  ) );
#440 = ORIENTED_EDGE('',*,*,#390,.F.);
#441 = ADVANCED_FACE('',(#442),#370,.T.);
#442 = FACE_BOUND('',#443,.T.);
#443 = EDGE_LOOP('',(#444));
#444 = ORIENTED_EDGE('',*,*,#355,.T.);
#445 = ADVANCED_FACE('',(#446),#429,.T.);
#446 = FACE_BOUND('',#447,.T.);
#447 = EDGE_LOOP('',(#448,#449,#472,#499));
#448 = ORIENTED_EDGE('',*,*,#414,.T.);
#449 = ORIENTED_EDGE('',*,*,#450,.T.);
#450 = EDGE_CURVE('',#391,#451,#453,.T.);
#451 = VERTEX_POINT('',#452);
#452 = CARTESIAN_POINT('',(-1.06066017178,1.43933982822,0.));
#453 = SEAM_CURVE('',#454,(#458,#465),.PCURVE_S1.);
#454 = LINE('',#455,#456);
#455 = CARTESIAN_POINT('',(-2.328427124746,2.707106781187,0.));
#456 = VECTOR('',#457,1.);
#457 = DIRECTION('',(0.707106781186,-0.707106781187,0.));
#458 = PCURVE('',#429,#459);
#459 = DEFINITIONAL_REPRESENTATION('',(#460),#464);
#460 = LINE('',#461,#462);
#461 = CARTESIAN_POINT('',(0.,0.));
#462 = VECTOR('',#463,1.);
#463 = DIRECTION('',(-0.,-1.));
#464 = ( GEOMETRIC_REPRESENTATION_CONTEXT(2) 
PARAMETRIC_REPRESENTATION_CONTEXT() REPRESENTATION_CONTEXT('2D SPACE',''
  ) );
#465 = PCURVE('',#429,#466);
#466 = DEFINITIONAL_REPRESENTATION('',(#467),#471);
#467 = LINE('',#468,#469);
#468 = CARTESIAN_POINT('',(6.283185307179,0.));
#469 = VECTOR('',#470,1.);
#470 = DIRECTION('',(-0.,-1.));
#471 = ( GEOMETRIC_REPRESENTATION_CONTEXT(2) 
PARAMETRIC_REPRESENTATION_CONTEXT() REPRESENTATION_CONTEXT('2D SPACE',''
  ) );
#472 = ORIENTED_EDGE('',*,*,#473,.F.);
#473 = EDGE_CURVE('',#451,#451,#474,.T.);
#474 = SURFACE_CURVE('',#475,(#480,#487),.PCURVE_S1.);
#475 = CIRCLE('',#476,1.43933982822);
#476 = AXIS2_PLACEMENT_3D('',#477,#478,#479);
#477 = CARTESIAN_POINT('',(-1.06066017178,0.,0.));
#478 = DIRECTION('',(1.,0.,0.));
#479 = DIRECTION('',(0.,1.,0.));
#480 = PCURVE('',#429,#481);
#481 = DEFINITIONAL_REPRESENTATION('',(#482),#486);
#482 = LINE('',#483,#484);
#483 = CARTESIAN_POINT('',(6.28318530718,-1.267766952966));
#484 = VECTOR('',#485,1.);
#485 = DIRECTION('',(-1.,0.));
#486 = ( GEOMETRIC_REPRESENTATION_CONTEXT(2) 
PARAMETRIC_REPRESENTATION_CONTEXT() REPRESENTATION_CONTEXT('2D SPACE',''
  ) );
#487 = PCURVE('',#488,#493);
#488 = TOROIDAL_SURFACE('',#489,2.5,1.5);
#489 = AXIS2_PLACEMENT_3D('',#490,#491,#492);
#490 = CARTESIAN_POINT('',(0.,0.,0.));
#491 = DIRECTION('',(-1.,-0.,-0.));
#492 = DIRECTION('',(0.,1.,0.));
#493 = DEFINITIONAL_REPRESENTATION('',(#494),#498);
#494 = LINE('',#495,#496);
#495 = CARTESIAN_POINT('',(6.28318530718,2.356194490192));
#496 = VECTOR('',#497,1.);
#497 = DIRECTION('',(-1.,0.));
#498 = ( GEOMETRIC_REPRESENTATION_CONTEXT(2) 
PARAMETRIC_REPRESENTATION_CONTEXT() REPRESENTATION_CONTEXT('2D SPACE',''
  ) );
#499 = ORIENTED_EDGE('',*,*,#450,.F.);
#500 = ADVANCED_FACE('',(#501),#488,.F.);
#501 = FACE_BOUND('',#502,.F.);
#502 = EDGE_LOOP('',(#503,#527,#554,#555));
#503 = ORIENTED_EDGE('',*,*,#504,.T.);
#504 = EDGE_CURVE('',#451,#505,#507,.T.);
#505 = VERTEX_POINT('',#506);
#506 = CARTESIAN_POINT('',(0.,1.,0.));
#507 = SEAM_CURVE('',#508,(#513,#520),.PCURVE_S1.);
#508 = CIRCLE('',#509,1.5);
#509 = AXIS2_PLACEMENT_3D('',#510,#511,#512);
#510 = CARTESIAN_POINT('',(0.,2.5,0.));
#511 = DIRECTION('',(0.,0.,1.));
#512 = DIRECTION('',(-1.,0.,0.));
#513 = PCURVE('',#488,#514);
#514 = DEFINITIONAL_REPRESENTATION('',(#515),#519);
#515 = LINE('',#516,#517);
#516 = CARTESIAN_POINT('',(6.28318530718,1.570796326795));
#517 = VECTOR('',#518,1.);
#518 = DIRECTION('',(-0.,1.));
#519 = ( GEOMETRIC_REPRESENTATION_CONTEXT(2) 
PARAMETRIC_REPRESENTATION_CONTEXT() REPRESENTATION_CONTEXT('2D SPACE',''
  ) );
#520 = PCURVE('',#488,#521);
#521 = DEFINITIONAL_REPRESENTATION('',(#522),#526);
#522 = LINE('',#523,#524);
#523 = CARTESIAN_POINT('',(-4.138911435803E-13,1.570796326795));
#524 = VECTOR('',#525,1.);
#525 = DIRECTION('',(-0.,1.));
#526 = ( GEOMETRIC_REPRESENTATION_CONTEXT(2) 
PARAMETRIC_REPRESENTATION_CONTEXT() REPRESENTATION_CONTEXT('2D SPACE',''
  ) );
#527 = ORIENTED_EDGE('',*,*,#528,.T.);
#528 = EDGE_CURVE('',#505,#505,#529,.T.);
#529 = SURFACE_CURVE('',#530,(#535,#542),.PCURVE_S1.);
#530 = CIRCLE('',#531,1.);
#531 = AXIS2_PLACEMENT_3D('',#532,#533,#534);
#532 = CARTESIAN_POINT('',(0.,0.,0.));
#533 = DIRECTION('',(1.,0.,0.));
#534 = DIRECTION('',(0.,1.,0.));
#535 = PCURVE('',#488,#536);
#536 = DEFINITIONAL_REPRESENTATION('',(#537),#541);
#537 = LINE('',#538,#539);
#538 = CARTESIAN_POINT('',(6.28318530718,3.14159265359));
#539 = VECTOR('',#540,1.);
#540 = DIRECTION('',(-1.,0.));
#541 = ( GEOMETRIC_REPRESENTATION_CONTEXT(2) 
PARAMETRIC_REPRESENTATION_CONTEXT() REPRESENTATION_CONTEXT('2D SPACE',''
  ) );
#542 = PCURVE('',#543,#548);
#543 = TOROIDAL_SURFACE('',#544,1.382,0.382);
#544 = AXIS2_PLACEMENT_3D('',#545,#546,#547);
#545 = CARTESIAN_POINT('',(0.,0.,0.));
#546 = DIRECTION('',(-1.,-0.,-0.));
#547 = DIRECTION('',(0.,1.,0.));
#548 = DEFINITIONAL_REPRESENTATION('',(#549),#553);
#549 = LINE('',#550,#551);
#550 = CARTESIAN_POINT('',(6.28318530718,3.14159265359));
#551 = VECTOR('',#552,1.);
#552 = DIRECTION('',(-1.,0.));
#553 = ( GEOMETRIC_REPRESENTATION_CONTEXT(2) 
PARAMETRIC_REPRESENTATION_CONTEXT() REPRESENTATION_CONTEXT('2D SPACE',''
  ) );
#554 = ORIENTED_EDGE('',*,*,#504,.F.);
#555 = ORIENTED_EDGE('',*,*,#473,.F.);
#556 = ADVANCED_FACE('',(#557),#543,.F.);
#557 = FACE_BOUND('',#558,.F.);
#558 = EDGE_LOOP('',(#559,#583,#610,#611));
#559 = ORIENTED_EDGE('',*,*,#560,.T.);
#560 = EDGE_CURVE('',#505,#561,#563,.T.);
#561 = VERTEX_POINT('',#562);
#562 = CARTESIAN_POINT('',(9.8868875229E-02,1.013016334358,0.));
#563 = SEAM_CURVE('',#564,(#569,#576),.PCURVE_S1.);
#564 = CIRCLE('',#565,0.382);
#565 = AXIS2_PLACEMENT_3D('',#566,#567,#568);
#566 = CARTESIAN_POINT('',(0.,1.382,0.));
#567 = DIRECTION('',(0.,0.,1.));
#568 = DIRECTION('',(-1.,0.,0.));
#569 = PCURVE('',#543,#570);
#570 = DEFINITIONAL_REPRESENTATION('',(#571),#575);
#571 = LINE('',#572,#573);
#572 = CARTESIAN_POINT('',(6.28318530718,1.570796326795));
#573 = VECTOR('',#574,1.);
#574 = DIRECTION('',(-0.,1.));
#575 = ( GEOMETRIC_REPRESENTATION_CONTEXT(2) 
PARAMETRIC_REPRESENTATION_CONTEXT() REPRESENTATION_CONTEXT('2D SPACE',''
  ) );
#576 = PCURVE('',#543,#577);
#577 = DEFINITIONAL_REPRESENTATION('',(#578),#582);
#578 = LINE('',#579,#580);
#579 = CARTESIAN_POINT('',(-4.138911435803E-13,1.570796326795));
#580 = VECTOR('',#581,1.);
#581 = DIRECTION('',(-0.,1.));
#582 = ( GEOMETRIC_REPRESENTATION_CONTEXT(2) 
PARAMETRIC_REPRESENTATION_CONTEXT() REPRESENTATION_CONTEXT('2D SPACE',''
  ) );
#583 = ORIENTED_EDGE('',*,*,#584,.T.);
#584 = EDGE_CURVE('',#561,#561,#585,.T.);
#585 = SURFACE_CURVE('',#586,(#591,#598),.PCURVE_S1.);
#586 = CIRCLE('',#587,1.013016334358);
#587 = AXIS2_PLACEMENT_3D('',#588,#589,#590);
#588 = CARTESIAN_POINT('',(9.8868875229E-02,0.,0.));
#589 = DIRECTION('',(1.,0.,0.));
#590 = DIRECTION('',(0.,1.,0.));
#591 = PCURVE('',#543,#592);
#592 = DEFINITIONAL_REPRESENTATION('',(#593),#597);
#593 = LINE('',#594,#595);
#594 = CARTESIAN_POINT('',(6.28318530718,3.403392041389));
#595 = VECTOR('',#596,1.);
#596 = DIRECTION('',(-1.,0.));
#597 = ( GEOMETRIC_REPRESENTATION_CONTEXT(2) 
PARAMETRIC_REPRESENTATION_CONTEXT() REPRESENTATION_CONTEXT('2D SPACE',''
  ) );
#598 = PCURVE('',#599,#604);
#599 = CONICAL_SURFACE('',#600,1.013016334358,0.261799387799);
#600 = AXIS2_PLACEMENT_3D('',#601,#602,#603);
#601 = CARTESIAN_POINT('',(9.8868875229E-02,0.,0.));
#602 = DIRECTION('',(1.,0.,0.));
#603 = DIRECTION('',(0.,1.,0.));
#604 = DEFINITIONAL_REPRESENTATION('',(#605),#609);
#605 = LINE('',#606,#607);
#606 = CARTESIAN_POINT('',(0.,0.));
#607 = VECTOR('',#608,1.);
#608 = DIRECTION('',(1.,0.));
#609 = ( GEOMETRIC_REPRESENTATION_CONTEXT(2) 
PARAMETRIC_REPRESENTATION_CONTEXT() REPRESENTATION_CONTEXT('2D SPACE',''
  ) );
#610 = ORIENTED_EDGE('',*,*,#560,.F.);
#611 = ORIENTED_EDGE('',*,*,#528,.F.);
#612 = ADVANCED_FACE('',(#613),#599,.T.);
#613 = FACE_BOUND('',#614,.T.);
#614 = EDGE_LOOP('',(#615,#616,#639,#666));
#615 = ORIENTED_EDGE('',*,*,#584,.T.);
#616 = ORIENTED_EDGE('',*,*,#617,.T.);
#617 = EDGE_CURVE('',#561,#618,#620,.T.);
#618 = VERTEX_POINT('',#619);
#619 = CARTESIAN_POINT('',(2.651740687545,1.697056274848,0.));
#620 = SEAM_CURVE('',#621,(#625,#632),.PCURVE_S1.);
#621 = LINE('',#622,#623);
#622 = CARTESIAN_POINT('',(9.8868875229E-02,1.013016334358,0.));
#623 = VECTOR('',#624,1.);
#624 = DIRECTION('',(0.965925826289,0.258819045102,0.));
#625 = PCURVE('',#599,#626);
#626 = DEFINITIONAL_REPRESENTATION('',(#627),#631);
#627 = LINE('',#628,#629);
#628 = CARTESIAN_POINT('',(6.28318530718,0.));
#629 = VECTOR('',#630,1.);
#630 = DIRECTION('',(0.,1.));
#631 = ( GEOMETRIC_REPRESENTATION_CONTEXT(2) 
PARAMETRIC_REPRESENTATION_CONTEXT() REPRESENTATION_CONTEXT('2D SPACE',''
  ) );
#632 = PCURVE('',#599,#633);
#633 = DEFINITIONAL_REPRESENTATION('',(#634),#638);
#634 = LINE('',#635,#636);
#635 = CARTESIAN_POINT('',(4.138911435803E-13,0.));
#636 = VECTOR('',#637,1.);
#637 = DIRECTION('',(0.,1.));
#638 = ( GEOMETRIC_REPRESENTATION_CONTEXT(2) 
PARAMETRIC_REPRESENTATION_CONTEXT() REPRESENTATION_CONTEXT('2D SPACE',''
  ) );
#639 = ORIENTED_EDGE('',*,*,#640,.F.);
#640 = EDGE_CURVE('',#618,#618,#641,.T.);
#641 = SURFACE_CURVE('',#642,(#647,#654),.PCURVE_S1.);
#642 = CIRCLE('',#643,1.697056274848);
#643 = AXIS2_PLACEMENT_3D('',#644,#645,#646);
#644 = CARTESIAN_POINT('',(2.651740687545,0.,0.));
#645 = DIRECTION('',(1.,0.,0.));
#646 = DIRECTION('',(0.,1.,0.));
#647 = PCURVE('',#599,#648);
#648 = DEFINITIONAL_REPRESENTATION('',(#649),#653);
#649 = LINE('',#650,#651);
#650 = CARTESIAN_POINT('',(0.,2.552871812316));
#651 = VECTOR('',#652,1.);
#652 = DIRECTION('',(1.,0.));
#653 = ( GEOMETRIC_REPRESENTATION_CONTEXT(2) 
PARAMETRIC_REPRESENTATION_CONTEXT() REPRESENTATION_CONTEXT('2D SPACE',''
  ) );
#654 = PCURVE('',#655,#660);
#655 = PLANE('',#656);
#656 = AXIS2_PLACEMENT_3D('',#657,#658,#659);
#657 = CARTESIAN_POINT('',(2.651740687545,0.,0.));
#658 = DIRECTION('',(1.,0.,0.));
#659 = DIRECTION('',(0.,1.,0.));
#660 = DEFINITIONAL_REPRESENTATION('',(#661),#665);
#661 = CIRCLE('',#662,1.697056274848);
#662 = AXIS2_PLACEMENT_2D('',#663,#664);
#663 = CARTESIAN_POINT('',(0.,0.));
#664 = DIRECTION('',(1.,0.));
#665 = ( GEOMETRIC_REPRESENTATION_CONTEXT(2) 
PARAMETRIC_REPRESENTATION_CONTEXT() REPRESENTATION_CONTEXT('2D SPACE',''
  ) );
#666 = ORIENTED_EDGE('',*,*,#617,.F.);
#667 = ADVANCED_FACE('',(#668),#655,.T.);
#668 = FACE_BOUND('',#669,.T.);
#669 = EDGE_LOOP('',(#670));
#670 = ORIENTED_EDGE('',*,*,#640,.T.);
#671 = ( GEOMETRIC_REPRESENTATION_CONTEXT(3) 
GLOBAL_UNCERTAINTY_ASSIGNED_CONTEXT((#675)) GLOBAL_UNIT_ASSIGNED_CONTEXT
((#672,#673,#674)) REPRESENTATION_CONTEXT('Context #1',
  '3D Context with UNIT and UNCERTAINTY') );
#672 = ( LENGTH_UNIT() NAMED_UNIT(*) SI_UNIT(.MILLI.,.METRE.) );
#673 = ( NAMED_UNIT(*) PLANE_ANGLE_UNIT() SI_UNIT($,.RADIAN.) );
#674 = ( NAMED_UNIT(*) SI_UNIT($,.STERADIAN.) SOLID_ANGLE_UNIT() );
#675 = UNCERTAINTY_MEASURE_WITH_UNIT(LENGTH_MEASURE(1.E-07),#672,
  'distance_accuracy_value','confusion accuracy');
#676 = PRODUCT_RELATED_PRODUCT_CATEGORY('part',$,(#7));
ENDSEC;
END-ISO-10303-21;
